<svg width="38" height="54" viewBox="2 -51 38 54" fill="#808080" xmlns="http://www.w3.org/2000/svg"><path d="M32.8359-38.6719L32.8359-38.6719Q34.0313-38.5313 35.3672-38.9531L35.3672-38.9531Q37.6875-39.7969 38.7070-42.0117Q39.7266-44.2266 38.8828-46.4063L38.8828-46.4063Q38.0391-48.7266 35.8594-49.7109Q33.6797-50.6953 31.4297-49.9219L31.4297-49.9219Q29.1797-49.0781 28.1602-46.8984Q27.1406-44.7188 27.9844-42.4688L27.9844-42.4688Q28.1250-42.1172 28.2305-41.8359Q28.3359-41.5547 28.5469-41.2734L28.5469-41.2734L9.8438-10.1953Q8.3672-10.4063 7.1719-9.9141L7.1719-9.9141Q4.8516-9.0703 3.8320-6.8906Q2.8125-4.7109 3.6563-2.4609L3.6563-2.4609Q4.5000-0.1406 6.6797 0.8438Q8.8594 1.8281 11.1797 1.0547L11.1797 1.0547Q13.3594 0.2109 14.3789-1.9688Q15.3984-4.1484 14.5547-6.4688L14.5547-6.4688Q14.4844-6.7500 14.3438-6.9961Q14.2031-7.2422 14.0625-7.5234L14.0625-7.5234L32.8359-38.6719Z"/></svg>