<svg width="68" height="45" viewBox="2 -47 68 45" fill="#808080" xmlns="http://www.w3.org/2000/svg"><path d="M13.6406-9.1406L13.6406-9.1406Q12.3047-9.1406 11.7422-9.8789Q11.1797-10.6172 11.6016-11.9531L11.6016-11.9531L20.5313-38.1094Q21.3750-40.0781 23.3438-40.0781L23.3438-40.0781L58.2891-40.0781Q59.6250-40.0781 60.1523-39.2695Q60.6797-38.4609 60.2578-37.1953L60.2578-37.1953L51.2578-11.1094Q50.5547-9.1406 48.5156-9.1406L48.5156-9.1406L13.6406-9.1406ZM18.9844-45.9844L18.9844-45.9844Q17.0859-45.9844 16.2422-44.0156L16.2422-44.0156L3.2344-6.0469Q2.8125-4.7109 3.3398-3.9727Q3.8672-3.2344 5.2031-3.2344L5.2031-3.2344L52.8750-3.2344Q54.9141-3.2344 55.6172-5.2031L55.6172-5.2031L68.6250-43.1016Q69.0469-44.3672 68.5195-45.1758Q67.9922-45.9844 66.6563-45.9844L66.6563-45.9844L18.9844-45.9844Z"/></svg>
