<svg width="63" height="64" viewBox="2 -57 63 64" fill="#808080" xmlns="http://www.w3.org/2000/svg"><path d="M48.8672-3.8672L48.8672-3.8672Q48.0938-3.0938 47.4609-3.3398Q46.8281-3.5859 46.8281-4.6406L46.8281-4.6406L46.8281-33.1875Q46.8281-34.3828 47.6016-35.2266L47.6016-35.2266L57.2344-45.6328Q57.9375-46.4063 58.6055-46.1602Q59.2734-45.9141 59.2734-44.7891L59.2734-44.7891L59.2734-16.3125Q59.2734-15.1875 58.5000-14.2734L58.5000-14.2734L48.8672-3.8672ZM13.1484-37.5469L13.1484-37.5469Q12.0234-37.5469 11.7773-38.1797Q11.5313-38.8125 12.3047-39.5859L12.3047-39.5859L22.3594-50.4844Q23.2031-51.3281 24.3281-51.3281L24.3281-51.3281L53.5781-51.3281Q54.6328-51.3281 54.8789-50.6953Q55.1250-50.0625 54.4219-49.2891L54.4219-49.2891L44.2969-38.3906Q43.4531-37.5469 42.3281-37.5469L42.3281-37.5469L13.1484-37.5469ZM9.0703 1.8281L9.0703 1.8281Q7.4531 1.8281 7.4531 0.2109L7.4531 0.2109L7.4531-31.2891Q7.4531-32.9766 9.0703-32.9766L9.0703-32.9766L40.5703-32.9766Q42.1875-32.9766 42.1875-31.2891L42.1875-31.2891L42.1875 0.2109Q42.1875 1.8281 40.5703 1.8281L40.5703 1.8281L9.0703 1.8281ZM2.8125 4.1484L2.8125 4.1484Q2.8125 5.0625 3.5156 5.7656Q4.2188 6.4688 5.1328 6.4688L5.1328 6.4688L44.2969 6.4688Q45.4922 6.4688 46.2656 5.5547L46.2656 5.5547L63.0703-12.4453Q63.8438-13.3594 63.8438-14.4844L63.8438-14.4844L63.8438-54.2813Q63.8438-55.8984 62.2266-55.8984L62.2266-55.8984L22.3594-55.8984Q21.1641-55.8984 20.3906-55.0547L20.3906-55.0547L3.5859-36.9844Q2.8125-36.1406 2.8125-34.9453L2.8125-34.9453L2.8125 4.1484Z"/></svg>
