<svg width="25" height="46" viewBox="1 -30 25 46" fill="#808080" xmlns="http://www.w3.org/2000/svg"><path d="M2.2500 0.7031L2.2500 0.7031Q0.7031 1.8281 2.8828 4.4297L2.8828 4.4297L10.8984 13.9922Q11.9531 15.3281 13.1836 15.3281Q14.4141 15.3281 15.4688 13.9922L15.4688 13.9922L23.5547 4.4297Q25.6641 1.8984 24.1172 0.7031L24.1172 0.7031Q22.5703-0.4922 20.3906 1.6875L20.3906 1.6875L19.6172 2.4609Q17.5781 4.5000 16.5586 4.2539Q15.5391 4.0078 15.5391 0.8438L15.5391 0.8438L15.5391-25.4531Q15.5391-28.6875 13.1484-28.6875L13.1484-28.6875Q10.8281-28.6875 10.8281-25.4531L10.8281-25.4531L10.8281 0.8438Q10.8281 4.0078 9.8438 4.3242Q8.8594 4.6406 7.2422 3.0234L7.2422 3.0234L5.9766 1.6875Q3.7266-0.4922 2.2500 0.7031L2.2500 0.7031Z"/></svg>