<svg width="74" height="86" viewBox="2 -68 74 86" fill="#808080" xmlns="http://www.w3.org/2000/svg"><path d="M13.9922-34.8047L13.9922 4.2891Q13.9922 5.2031 14.6953 5.9063Q15.3984 6.6094 16.3125 6.6094L16.3125 6.6094L55.4766 6.6094Q56.6719 6.6094 57.4453 5.6953L57.4453 5.6953L74.2500-12.3047Q75.0234-13.2188 75.0234-14.3438L75.0234-14.3438L75.0234-54.1406Q75.0234-55.7578 73.4063-55.7578L73.4063-55.7578L33.5391-55.7578Q32.3438-55.7578 31.5703-54.9141L31.5703-54.9141L14.7656-36.8438Q13.9922-36 13.9922-34.8047L13.9922-34.8047ZM51.7500 1.9688L20.2500 1.9688Q18.6328 1.9688 18.6328 0.3516L18.6328 0.3516L18.6328-31.1484Q18.6328-32.8359 20.2500-32.8359L20.2500-32.8359L51.7500-32.8359Q53.3672-32.8359 53.3672-31.1484L53.3672-31.1484L53.3672 0.3516Q53.3672 1.9688 51.7500 1.9688L51.7500 1.9688ZM53.5078-37.4063L24.3281-37.4063Q23.2031-37.4063 22.9570-38.0391Q22.7109-38.6719 23.4844-39.4453L23.4844-39.4453L33.5391-50.3438Q34.3828-51.1875 35.5078-51.1875L35.5078-51.1875L64.7578-51.1875Q65.8125-51.1875 66.0586-50.5547Q66.3047-49.9219 65.6016-49.1484L65.6016-49.1484L55.4766-38.2500Q54.6328-37.4063 53.5078-37.4063L53.5078-37.4063ZM69.6797-14.1328L60.0469-3.7266Q59.2734-2.9531 58.6406-3.1992Q58.0078-3.4453 58.0078-4.5000L58.0078-4.5000L58.0078-33.0469Q58.0078-34.2422 58.7813-35.0859L58.7813-35.0859L68.4141-45.4922Q69.1172-46.2656 69.7852-46.0195Q70.4531-45.7734 70.4531-44.6484L70.4531-44.6484L70.4531-16.1719Q70.4531-15.0469 69.6797-14.1328L69.6797-14.1328ZM5.1328-26.2266L5.1328-26.2266Q4.2188-26.2266 3.5156-25.5586Q2.8125-24.8906 2.8125-23.9063L2.8125-23.9063L2.8125 15.4688Q2.8125 17.0156 4.2891 17.5781L4.2891 17.5781L45.3516 17.5781Q46.8281 17.0156 46.8281 15.4688L46.8281 15.4688Q46.8281 14.4844 46.1602 13.8164Q45.4922 13.1484 44.5078 13.1484L44.5078 13.1484L9.0703 13.1484Q7.4531 13.1484 7.4531 11.5313L7.4531 11.5313L7.4531-23.9063Q7.4531-24.8906 6.7500-25.5586Q6.0469-26.2266 5.1328-26.2266ZM10.0547-42.6797L10.0547-42.6797Q11.0391-42.6797 11.7422-43.3828L11.7422-43.3828L28.6172-61.4531Q29.3906-62.3672 30.5859-62.3672L30.5859-62.3672L67.8516-62.3672Q68.7656-62.3672 69.4336-63.0352Q70.1016-63.7031 70.1016-64.6172L70.1016-64.6172Q70.1016-66.2344 68.5547-66.7969L68.5547-66.7969L27.7031-66.7969Q27.1406-66.5859 26.6484-66.0938L26.6484-66.0938L8.3672-46.5469Q7.8047-45.8438 7.8047-44.9297L7.8047-44.9297Q7.8047-44.0156 8.4727-43.3477Q9.1406-42.6797 10.0547-42.6797Z"/></svg>
