<svg width="86" height="86" viewBox="2 -68 86 86" fill="#808080" xmlns="http://www.w3.org/2000/svg"><path d="M13.9922-34.9453L13.9922 4.1484Q13.9922 5.1328 14.6602 5.8008Q15.3281 6.4688 16.2422 6.4688L16.2422 6.4688L55.4766 6.4688Q56.6719 6.4688 57.4453 5.6250L57.4453 5.6250L74.2500-12.4453Q75.0234-13.2891 75.0234-14.4844L75.0234-14.4844L75.0234-54.2109Q75.0234-55.8984 73.3359-55.8984L73.3359-55.8984L33.5391-55.8984Q32.3438-55.8984 31.5703-55.0547L31.5703-55.0547L14.7656-36.9844Q13.9922-36.0703 13.9922-34.9453L13.9922-34.9453ZM51.6797 1.8984L20.1797 1.8984Q18.5625 1.8984 18.5625 0.2109L18.5625 0.2109L18.5625-31.2891Q18.5625-32.9063 20.1797-32.9063L20.1797-32.9063L51.6797-32.9063Q53.3672-32.9063 53.3672-31.2891L53.3672-31.2891L53.3672 0.2109Q53.3672 1.8984 51.6797 1.8984L51.6797 1.8984ZM53.5078-37.4766L24.2578-37.4766Q23.2031-37.4766 22.9570-38.1094Q22.7109-38.7422 23.4141-39.5156L23.4141-39.5156L33.5391-50.4141Q34.3828-51.2578 35.5078-51.2578L35.5078-51.2578L64.6875-51.2578Q65.8125-51.2578 66.0586-50.6602Q66.3047-50.0625 65.5313-49.2188L65.5313-49.2188L55.4766-38.3203Q54.6328-37.4766 53.5078-37.4766L53.5078-37.4766ZM69.6094-14.2734L59.9766-3.7969Q59.2734-3.0234 58.6055-3.2695Q57.9375-3.5156 57.9375-4.6406L57.9375-4.6406L57.9375-33.1875Q57.9375-34.3125 58.7109-35.2266L58.7109-35.2266L68.4141-45.5625Q69.1172-46.3359 69.7500-46.0898Q70.3828-45.8438 70.3828-44.7891L70.3828-44.7891L70.3828-16.3125Q70.3828-15.1172 69.6094-14.2734L69.6094-14.2734ZM5.1328-26.3672L5.1328-26.3672Q4.1484-26.3672 3.4805-25.6641Q2.8125-24.9609 2.8125-24.0469L2.8125-24.0469L2.8125 15.3281Q2.8125 16.1719 3.3398 16.8047Q3.8672 17.4375 4.6406 17.5781L4.6406 17.5781L45 17.5781Q45.7734 17.4375 46.2656 16.8047Q46.7578 16.1719 46.7578 15.3281L46.7578 15.3281Q46.7578 14.4141 46.0898 13.7109Q45.4219 13.0078 44.5078 13.0078L44.5078 13.0078L9.0703 13.0078Q7.3828 13.0078 7.3828 11.3906L7.3828 11.3906L7.3828-24.0469Q7.3828-24.9609 6.7148-25.6641Q6.0469-26.3672 5.1328-26.3672ZM84.2344-50.6250L84.2344-50.6250Q83.2500-50.6250 82.5820-49.9570Q81.9141-49.2891 81.9141-48.3047L81.9141-48.3047L81.9141-11.0391Q81.9141-9.9141 81.1406-9L81.1406-9L64.1250 9.1406Q63.4922 9.8438 63.4922 10.7578L63.4922 10.7578Q63.4922 11.6719 64.1953 12.3398Q64.8984 13.0078 65.8125 13.0078L65.8125 13.0078Q66.7969 13.0078 67.5000 12.3047L67.5000 12.3047L85.7109-7.1719Q86.1328-7.6641 86.3438-8.1563L86.3438-8.1563L86.3438-49.2188Q85.7109-50.6250 84.2344-50.6250ZM10.0547-42.7500L10.0547-42.7500Q11.0391-42.7500 11.7422-43.4531L11.7422-43.4531L28.6172-61.5938Q29.3906-62.4375 30.5859-62.4375L30.5859-62.4375L67.7813-62.4375Q68.6953-62.4375 69.3984-63.1055Q70.1016-63.7734 70.1016-64.7578L70.1016-64.7578Q70.1016-66.1641 68.7656-66.7969L68.7656-66.7969L27.4219-66.7969Q27-66.5859 26.6484-66.1641L26.6484-66.1641L8.2969-46.6172Q7.7344-45.9141 7.7344-45.0703L7.7344-45.0703Q7.7344-44.0859 8.4023-43.4180Q9.0703-42.7500 10.0547-42.7500Z"/></svg>