<svg width="25" height="46" viewBox="1 -66 25 46" fill="#808080" xmlns="http://www.w3.org/2000/svg"><path d="M15.4688-63.2813L15.4688-63.2813Q14.3438-64.5469 13.1484-64.5469Q11.9531-64.5469 10.8281-63.2813L10.8281-63.2813L2.8125-53.7188Q0.7031-51.0469 2.1797-49.9922L2.1797-49.9922Q3.7266-48.7266 5.9063-50.9766L5.9063-50.9766L7.2422-52.2422Q8.8594-53.8594 9.8086-53.5430Q10.7578-53.2266 10.7578-50.0625L10.7578-50.0625L10.7578-23.8359Q10.7578-20.5313 13.1484-20.5313L13.1484-20.5313Q15.4688-20.5313 15.4688-23.8359L15.4688-23.8359L15.4688-50.0625Q15.4688-53.2266 16.5234-53.4727Q17.5781-53.7188 19.5469-51.7500L19.5469-51.7500L20.3906-50.9766Q22.5703-48.7266 24.1172-49.9922L24.1172-49.9922Q25.5938-51.1875 23.4844-53.7188L23.4844-53.7188L15.4688-63.2813Z"/></svg>