<svg width="70" height="76" viewBox="2 -68 70 76" fill="#808080" xmlns="http://www.w3.org/2000/svg"><path d="M55.7578-3.5156L55.7578-3.5156Q54.9844-2.7422 54.3516-2.9883Q53.7188-3.2344 53.7188-4.2891L53.7188-4.2891L53.7188-32.8359Q53.7188-34.0313 54.4922-34.8750L54.4922-34.8750L64.1250-45.2813Q64.8281-46.0547 65.4961-45.8086Q66.1641-45.5625 66.1641-44.4375L66.1641-44.4375L66.1641-15.9609Q66.1641-14.8359 65.3906-13.9219L65.3906-13.9219L55.7578-3.5156ZM20.0391-37.1953L20.0391-37.1953Q18.9141-37.1953 18.6680-37.8281Q18.4219-38.4609 19.1953-39.2344L19.1953-39.2344L29.2500-50.1328Q30.0938-50.9766 31.2188-50.9766L31.2188-50.9766L60.4688-50.9766Q61.5234-50.9766 61.7695-50.3438Q62.0156-49.7109 61.3125-48.9375L61.3125-48.9375L51.1875-38.0391Q50.3438-37.1953 49.2188-37.1953L49.2188-37.1953L20.0391-37.1953ZM15.9609 2.1797L15.9609 2.1797Q14.3438 2.1797 14.3438 0.5625L14.3438 0.5625L14.3438-30.9375Q14.3438-32.6250 15.9609-32.6250L15.9609-32.6250L47.4609-32.6250Q49.0781-32.6250 49.0781-30.9375L49.0781-30.9375L49.0781 0.5625Q49.0781 2.1797 47.4609 2.1797L47.4609 2.1797L15.9609 2.1797ZM9.7031 4.5000L9.7031 4.5000Q9.7031 5.4141 10.4063 6.1172Q11.1094 6.8203 12.0234 6.8203L12.0234 6.8203L51.1875 6.8203Q52.3828 6.8203 53.1563 5.9063L53.1563 5.9063L69.9609-12.0938Q70.7344-13.0078 70.7344-14.1328L70.7344-14.1328L70.7344-53.9297Q70.7344-55.5469 69.1172-55.5469L69.1172-55.5469L29.2500-55.5469Q28.0547-55.5469 27.2813-54.7031L27.2813-54.7031L10.4766-36.6328Q9.7031-35.7891 9.7031-34.5938L9.7031-34.5938L9.7031 4.5000ZM5.1328-42.4688L5.1328-42.4688Q5.9766-42.4688 6.7500-43.1016L6.7500-43.1016L24.9609-61.3125Q25.7344-62.1563 26.8594-62.1563L26.8594-62.1563L64.1953-62.1563Q65.1094-62.1563 65.8125-62.8242Q66.5156-63.4922 66.5156-64.4063L66.5156-64.4063Q66.5156-65.3906 65.8125-66.0586Q65.1094-66.7266 64.1953-66.7266L64.1953-66.7266L25.1016-66.7266Q23.9063-66.7266 23.0625-65.8828L23.0625-65.8828L3.4453-46.4063Q2.8125-45.6328 2.8125-44.7188L2.8125-44.7188Q2.8125-43.8047 3.5156-43.1367Q4.2188-42.4688 5.1328-42.4688L5.1328-42.4688Z"/></svg>