<svg width="37" height="37" viewBox="2 -44 37 37" fill="#808080" xmlns="http://www.w3.org/2000/svg"><path d="M32.6953-13.3242Q27.5625-8.2266 20.3203-8.2266Q13.0781-8.2266 7.9453-13.3242Q2.8125-18.4219 2.8125-25.7344Q2.8125-33.0469 7.9453-38.1445Q13.0781-43.2422 20.3203-43.2422Q27.5625-43.2422 32.6953-38.1445Q37.8281-33.0469 37.8281-25.7344Q37.8281-18.4219 32.6953-13.3242ZM12.6914-18.1055Q15.8203-14.9766 20.3203-14.9766Q24.8203-14.9766 27.9492-18.1055Q31.0781-21.2344 31.0781-25.7344Q31.0781-30.2344 27.9844-33.3633Q24.8906-36.4922 20.3203-36.4922L20.3203-36.4922Q15.8203-36.4922 12.6914-33.3633Q9.5625-30.2344 9.5625-25.7344Q9.5625-21.2344 12.6914-18.1055Z"/></svg>